<?xml version="1.0" standalone="no"?>
<!DOCTYPE svg PUBLIC "-//W3C//DTD SVG 20010904//EN"
 "http://www.w3.org/TR/2001/REC-SVG-20010904/DTD/svg10.dtd">
<svg version="1.0" xmlns="http://www.w3.org/2000/svg"
 width="790.000000pt" height="920.000000pt" viewBox="0 0 790.000000 920.000000"
 preserveAspectRatio="xMidYMid meet">

<g transform="translate(0.000000,920.000000) scale(0.100000,-0.100000)"
fill="#000000" stroke="none">
<path d="M1980 8081 l-1975 -1119 0 -2363 0 -2362 1977 -1119 1977 -1119 1968
1119 1968 1119 0 2363 0 2363 -855 500 c-506 295 -1310 752 -1969 1118 -612
341 -1114 619 -1115 618 0 0 -890 -503 -1976 -1118z m2388 -1396 c89 -40 164
-123 192 -211 11 -36 20 -88 20 -114 0 -97 -54 -215 -125 -271 -11 -9 -30 -25
-43 -36 l-24 -18 39 -133 c21 -72 43 -132 48 -132 6 0 192 40 415 88 l405 88
6 71 c13 138 93 254 213 310 52 24 74 28 146 28 113 0 187 -33 265 -117 89
-96 116 -219 76 -347 -34 -110 -122 -198 -232 -232 -66 -21 -136 -24 -186 -10
l-32 9 -360 -549 c-199 -302 -361 -555 -361 -562 0 -6 47 -167 103 -357 l103
-345 58 -7 c142 -18 267 -118 306 -244 25 -82 25 -145 1 -223 -45 -146 -188
-251 -341 -251 -150 0 -296 106 -339 244 -9 31 -21 59 -25 63 -6 7 -568 65
-572 60 -1 -1 -96 -147 -213 -325 -116 -177 -211 -325 -211 -328 0 -3 10 -19
21 -36 12 -16 30 -57 40 -90 60 -190 -44 -390 -232 -449 -192 -60 -390 43
-451 233 -24 78 -20 172 10 241 l21 48 -276 302 c-152 166 -290 316 -307 334
l-31 32 -70 -24 c-85 -30 -153 -31 -234 -6 -254 79 -332 401 -144 593 66 68
148 102 243 103 41 0 89 -4 106 -8 l32 -8 246 497 c135 273 246 503 246 510 0
7 -8 19 -18 26 -40 29 -90 108 -107 172 -46 170 38 348 199 423 52 24 74 28
146 28 72 0 94 -4 147 -29 59 -27 133 -93 173 -154 l15 -22 260 56 c143 32
261 58 262 58 1 1 19 83 40 183 l39 181 -31 16 c-79 44 -146 130 -170 220 -79
293 216 546 493 421z"/>
<path d="M4226 5959 c-3 -13 -15 -67 -26 -119 -11 -52 -22 -105 -25 -116 -5
-21 -4 -21 62 -8 37 8 68 16 70 17 2 3 -67 240 -73 246 -1 2 -5 -7 -8 -20z"/>
<path d="M4870 5692 c-190 -42 -347 -77 -349 -79 -6 -4 11 -71 47 -186 l27
-87 310 206 c314 209 337 225 320 223 -6 -1 -165 -35 -355 -77z"/>
<path d="M4995 5414 c-192 -129 -350 -238 -349 -242 0 -4 27 -98 60 -209 45
-156 61 -200 70 -190 10 10 548 830 568 865 4 6 6 12 4 11 -2 0 -160 -106
-353 -235z"/>
<path d="M4241 5554 c-57 -13 -105 -25 -106 -27 -1 -1 -28 -123 -59 -272 -32
-148 -60 -278 -63 -288 -3 -12 74 34 209 124 117 78 217 145 222 150 9 8 -83
340 -94 338 -3 0 -52 -12 -109 -25z"/>
<path d="M3721 5441 l-213 -47 -19 -71 c-10 -40 -22 -81 -28 -91 -8 -16 17
-45 174 -202 101 -101 186 -182 188 -180 2 3 32 138 66 300 34 162 65 305 68
318 3 15 1 22 -8 21 -8 0 -110 -22 -228 -48z"/>
<path d="M3302 5078 c-31 -19 -32 -23 -27 -62 3 -22 15 -147 26 -276 12 -129
23 -237 25 -239 5 -5 363 232 364 241 0 9 -341 358 -349 357 -3 0 -21 -10 -39
-21z"/>
<path d="M4227 4902 c-146 -97 -267 -181 -267 -186 0 -8 446 -468 460 -474 4
-1 57 74 119 167 l113 169 -72 243 c-40 134 -75 247 -79 251 -3 4 -127 -72
-274 -170z"/>
<path d="M2996 4888 c-41 -84 -153 -312 -250 -507 -97 -194 -176 -362 -176
-372 0 -15 68 26 300 181 165 110 300 204 300 208 0 19 -51 581 -56 610 -4 24
-10 32 -25 32 -16 0 -35 -30 -93 -152z"/>
<path d="M3546 4448 l-208 -140 5 -36 c3 -21 16 -153 28 -294 l22 -257 66 -6
c36 -3 78 -8 93 -11 19 -4 28 -1 32 13 2 10 44 203 91 428 48 226 89 418 91
428 3 9 2 17 -3 16 -4 0 -102 -63 -217 -141z"/>
<path d="M3916 4499 c-11 -32 -173 -804 -169 -809 4 -4 225 -28 274 -29 24 -1
42 22 168 214 77 119 141 219 141 223 0 4 -92 99 -205 212 -136 136 -206 199
-209 189z"/>
<path d="M4621 4243 l-83 -126 166 -166 c91 -91 168 -162 172 -159 6 7 -152
557 -164 570 -4 4 -45 -50 -91 -119z"/>
<path d="M2917 4028 c-259 -173 -269 -180 -262 -206 4 -15 8 -28 9 -30 7 -6
556 -55 562 -50 4 5 -32 439 -39 459 -1 3 -123 -74 -270 -173z"/>
<path d="M4340 3813 c-61 -91 -109 -168 -107 -170 2 -2 98 -12 213 -23 115
-11 223 -22 240 -24 29 -4 33 -1 49 34 l18 39 -148 156 c-82 85 -150 155 -152
155 -2 0 -53 -75 -113 -167z"/>
<path d="M2622 3598 c-10 -27 -9 -35 6 -52 16 -19 532 -587 572 -629 17 -18
19 -18 59 2 29 15 41 28 41 44 0 37 -52 602 -56 606 -3 4 -553 60 -594 61 -9
0 -21 -14 -28 -32z"/>
<path d="M3410 3549 c0 -20 41 -433 43 -436 2 -1 23 95 48 213 45 211 45 215
25 219 -49 9 -116 12 -116 4z"/>
<path d="M3706 3513 c-3 -10 -28 -126 -56 -258 -28 -132 -53 -251 -56 -265 -5
-21 330 473 343 506 3 8 -24 14 -84 18 -48 4 -100 9 -115 12 -19 4 -28 1 -32
-13z"/>
</g>
</svg>
